<svg width="340" height="276" viewBox="0 0 340 276" fill="none" xmlns="http://www.w3.org/2000/svg">

<path d="M10.2818 237.341L45.1204 240.761C45.1204 240.761 41.6762 203.78 35.3818 195.334C29.0874 186.888 15.4224 185.262 9.09356 198.997C2.76474 212.731 10.2818 237.341 10.2818 237.341Z" fill="#054752"/>
<path d="M45.594 241.247L9.96323 237.771L9.86851 237.481C9.60158 236.472 2.36865 212.544 8.74052 198.791C11.5218 192.755 15.9993 189.083 21.3465 188.438C24.0587 188.153 26.7938 188.601 29.3076 189.742C31.8213 190.883 34.0354 192.683 35.7521 194.979C42.0895 203.444 45.439 239.145 45.5768 240.658L45.594 241.247ZM10.6004 236.902L44.6382 240.219C44.1733 235.547 40.7979 203.276 35.046 195.595C33.4242 193.415 31.3293 191.705 28.9489 190.619C26.5686 189.533 23.9771 189.105 21.4068 189.373C16.3609 189.971 12.1245 193.465 9.47242 199.211C3.66886 211.797 9.79102 234.099 10.6004 236.902Z" fill="#054752"/>
<path d="M39.7388 203.977H23.9985V262.886H39.7388C46.0417 262.886 51.1478 249.703 51.1478 233.436C51.1478 217.169 46.0676 203.977 39.7388 203.977Z" fill="#054752"/>
<path d="M39.7388 263.353H23.568V203.509H39.7388C46.3776 203.509 51.5784 216.655 51.5784 233.408C51.5784 250.16 46.4034 263.353 39.7388 263.353ZM24.4032 262.419H39.7388C45.7662 262.419 50.7173 249.413 50.7173 233.455C50.7173 217.496 45.792 204.49 39.7388 204.49H24.4291L24.4032 262.419Z" fill="#054752"/>
<path d="M23.9986 262.895C30.2996 262.895 35.4076 249.706 35.4076 233.436C35.4076 217.166 30.2996 203.977 23.9986 203.977C17.6975 203.977 12.5895 217.166 12.5895 233.436C12.5895 249.706 17.6975 262.895 23.9986 262.895Z" fill="#878787"/>
<path d="M23.9986 263.353C17.3512 263.353 12.1503 250.207 12.1503 233.454C12.1503 216.702 17.3167 203.556 23.9986 203.556C30.6804 203.556 35.8382 216.702 35.8382 233.454C35.8382 250.207 30.6374 263.353 23.9986 263.353ZM23.9986 204.444C17.9711 204.444 13.0114 217.449 13.0114 233.408C13.0114 249.366 17.9367 262.372 23.9986 262.372C30.0604 262.372 34.9771 249.366 34.9771 233.408C34.9771 217.449 30.0518 204.444 23.9986 204.444Z" fill="#054752"/>

<path d="M23.9985 258.429C29.3057 258.429 33.608 247.779 33.608 234.641C33.608 221.503 29.3057 210.853 23.9985 210.853C18.6913 210.853 14.389 221.503 14.389 234.641C14.389 247.779 18.6913 258.429 23.9985 258.429Z" fill="white"/>

<path d="M23.9986 258.896C18.3672 258.896 13.95 248.245 13.95 234.604C13.95 220.962 18.3672 210.311 23.9986 210.311C29.6299 210.311 34.0385 220.962 34.0385 234.604C34.0385 248.245 29.6299 258.896 23.9986 258.896ZM23.9986 211.32C18.9355 211.32 14.811 221.785 14.811 234.678C14.811 247.572 18.9355 258.037 23.9986 258.037C29.0616 258.037 33.1775 247.572 33.1775 234.678C33.1775 221.785 29.053 211.32 23.9986 211.32Z" fill="#054752"/>
<path d="M161.261 196.24H143.299C136.118 196.24 130.297 210.199 130.297 227.419C130.297 244.639 136.118 258.588 143.299 258.588H161.261C168.45 258.588 174.271 244.629 174.271 227.419C174.271 210.209 168.45 196.24 161.261 196.24Z" fill="#054752"/>
<path d="M161.261 259.055H143.299C135.894 259.055 129.866 244.863 129.866 227.419C129.866 209.975 135.894 195.773 143.299 195.773H161.261C168.674 195.773 174.702 209.966 174.702 227.419C174.702 244.872 168.674 259.055 161.261 259.055ZM143.299 196.707C136.367 196.707 130.727 210.489 130.727 227.419C130.727 244.349 136.367 258.121 143.299 258.121H161.261C168.201 258.121 173.841 244.349 173.841 227.419C173.841 210.489 168.201 196.707 161.261 196.707H143.299Z" fill="#054752"/>
<path d="M179.36 205.929H157.834V275.331H179.36C187.971 275.331 194.945 259.803 194.945 240.649C194.945 221.495 187.971 205.929 179.36 205.929Z" fill="#054752"/>
<path d="M179.36 275.77H157.403V205.462H179.36C188.195 205.462 195.376 221.233 195.376 240.621C195.376 260.008 188.195 275.77 179.36 275.77ZM158.264 274.836H179.36C187.721 274.836 194.515 259.485 194.515 240.621C194.515 221.757 187.721 206.396 179.36 206.396H158.264V274.836Z" fill="#054752"/>
<path d="M157.834 275.303C166.441 275.303 173.419 259.775 173.419 240.621C173.419 221.466 166.441 205.939 157.834 205.939C149.226 205.939 142.248 221.466 142.248 240.621C142.248 259.775 149.226 275.303 157.834 275.303Z" fill="#878787"/>
<path d="M157.834 275.77C148.999 275.77 141.818 259.999 141.818 240.621C141.818 221.243 148.999 205.462 157.834 205.462C166.668 205.462 173.849 221.233 173.849 240.621C173.849 260.008 166.659 275.77 157.834 275.77ZM157.834 206.396C149.473 206.396 142.679 221.747 142.679 240.621C142.679 259.494 149.473 274.836 157.834 274.836C166.194 274.836 172.988 259.485 172.988 240.621C172.988 221.757 166.186 206.396 157.834 206.396Z" fill="#054752"/>
<path d="M157.834 270.052C165.081 270.052 170.956 257.511 170.956 242.041C170.956 226.571 165.081 214.03 157.834 214.03C150.586 214.03 144.711 226.571 144.711 242.041C144.711 257.511 150.586 270.052 157.834 270.052Z" fill="white"/>
<path d="M157.834 270.52C150.36 270.52 144.28 257.747 144.28 242.041C144.28 226.335 150.36 213.563 157.834 213.563C165.308 213.563 171.387 226.344 171.387 242.041C171.387 257.738 165.308 270.52 157.834 270.52ZM157.834 214.46C150.833 214.46 145.142 226.821 145.142 242.004C145.142 257.187 150.833 269.548 157.834 269.548C164.834 269.548 170.526 257.196 170.526 242.004C170.526 226.812 164.834 214.497 157.834 214.497V214.46Z" fill="#054752"/>
<path d="M301.399 198.903H279.872C271.261 198.903 264.287 214.432 264.287 233.585C264.287 252.739 271.261 268.277 279.872 268.277H301.399C310.009 268.277 316.984 252.739 316.984 233.585C316.984 214.432 310.001 198.903 301.399 198.903Z" fill="#054752"/>
<path d="M301.399 268.791H279.872C271.046 268.791 263.856 253.019 263.856 233.632C263.856 214.245 271.046 198.483 279.872 198.483H301.399C310.224 198.483 317.414 214.254 317.414 233.632C317.414 253.01 310.224 268.791 301.399 268.791ZM279.872 199.417C271.52 199.417 264.717 214.768 264.717 233.632C264.717 252.496 271.52 267.857 279.872 267.857H301.399C309.751 267.857 316.553 252.506 316.553 233.632C316.553 214.759 309.751 199.417 301.399 199.417H279.872Z" fill="#054752"/>
<path d="M90.1368 119.578C86.4986 120.007 82.8932 120.716 79.3477 121.699C71.6911 123.805 64.2042 126.58 56.96 129.996C42.9161 136.798 25.8585 150.626 20.6749 153.196C15.4913 155.765 7.5006 156.251 6.63092 159.998C5.96454 163.393 5.46157 166.823 5.12406 170.275C5.12406 170.275 1.67981 173.555 1.23205 182.692C0.784302 191.83 0.155726 222.299 0.801523 226.288C1.44732 230.278 1.23206 231.203 4.47826 233.081C7.72447 234.959 9.64464 237.304 10.3077 237.304C10.9707 237.304 6.60509 208.274 13.5194 201.519C20.4338 194.764 30.801 196.362 35.1149 211.797C39.4288 227.232 37.9219 243.91 39.6527 244.844C40.8848 245.456 42.1983 245.854 43.5447 246.021L139.226 254.43C139.226 254.43 134.688 232.165 139.872 217.393C145.055 202.622 154.992 195.128 164.274 198.884C173.557 202.64 180.264 219.972 182.202 231.222C184.139 242.471 184.785 248.096 184.363 252.085C183.941 256.075 183.932 257.943 186.739 258.177C189.547 258.411 312.455 254.197 322.167 253.019C331.88 251.842 338.364 250.441 339.01 247.628C339.656 244.816 339.656 246.46 339.656 244.825C339.656 243.19 338.579 215.301 337.933 211.311C337.288 207.321 336.849 204.518 335.35 202.173C333.732 199.899 332.008 197.716 330.184 195.633C330.184 195.633 330.83 190.475 328.023 186.962C325.216 183.449 283.532 165.865 283.532 165.865C283.532 165.865 253.937 144.768 242.924 137.742C231.911 130.716 214.414 123.727 196.917 120.634C179.42 117.542 150.911 116.411 134.499 116.178C121.884 115.991 99.7635 118.429 90.1368 119.578Z" fill="#2481ce"/>


<path d="M253.911 195.624L260.171 201.015L205.752 196.324L186.309 178.75L184.793 172.181L224.11 187.187L253.911 195.624Z" fill="#054752"/>
<path d="M261.549 201.594L205.579 196.773L205.468 196.679L185.921 179.011L184.199 171.452L224.265 186.738L254.143 195.194L261.549 201.594ZM205.924 195.913L258.81 200.473L253.722 196.091L224.006 187.682L185.413 172.957L186.696 178.563L205.924 195.913Z" fill="#054752"/>

<path d="M230.085 198.417L234.907 195.614H252.421C252.421 195.614 233.194 193.97 231.902 193.97C230.611 193.97 226.279 195.838 224.557 196.315C222.835 196.792 216.351 196.782 213.536 195.138C210.72 193.493 207.706 186.729 207.706 186.729L233.685 189.906L224.127 187.205L191.458 174.723C188.685 176.049 188.307 179.843 188.255 180.506L188.462 180.693L202.936 185.776L211.762 196.848L230.085 198.417Z" fill="white"/>

<path d="M230.18 198.894L211.555 197.296L202.695 186.178L188.186 181.057L187.816 180.712V180.478C187.867 179.693 188.289 175.722 191.26 174.293L191.415 174.218L224.23 186.738L233.762 189.438L233.607 190.373L208.421 187.299C209.282 189.093 211.598 193.531 213.708 194.773C216.386 196.343 222.68 196.38 224.42 195.904C225.04 195.736 226.047 195.371 227.106 194.97C228.64 194.305 230.237 193.825 231.868 193.54C233.159 193.54 251.672 195.119 252.413 195.184V196.119H235.011L230.18 198.894ZM211.951 196.39L230.034 197.941L234.83 195.138H241.228C236.733 194.764 232.462 194.428 231.885 194.428C230.352 194.729 228.849 195.192 227.399 195.81C226.323 196.203 225.306 196.577 224.643 196.745C222.758 197.259 216.214 197.221 213.32 195.53C210.427 193.839 207.431 187.121 207.293 186.888L206.957 186.131L227.735 188.672L224.006 187.635L191.484 175.227C189.323 176.386 188.823 179.263 188.72 180.291L203.194 185.374L211.951 196.39Z" fill="#054752"/>
<path d="M313.056 195.166L308.561 195.461L308.613 196.394L313.108 196.098L313.056 195.166Z" fill="#054752"/>
<path d="M266.672 197.502L257.329 196.567L257.407 195.633L266.646 196.567C267.697 196.39 283.807 193.764 291.746 194.465C297.877 194.988 302.802 195.399 304.903 195.549L304.843 196.483C302.742 196.324 297.808 195.932 291.677 195.399C283.6 194.717 266.887 197.483 266.706 197.511L266.672 197.502Z" fill="#054752"/>
<path d="M327.997 186.953C327.222 186.019 323.519 183.954 318.525 181.525L317.819 181.796C317.819 181.796 321.702 184.841 320.841 187.887C319.98 190.933 314.814 194.428 314.814 194.428L315.029 199.585C315.029 199.585 327.558 198.651 330.149 195.605C330.158 195.624 330.778 190.466 327.997 186.953Z" fill="white"/>
<path d="M314.624 200.099L314.375 194.194L314.59 194.054C314.642 194.054 319.653 190.597 320.454 187.747C321.22 185.056 317.63 182.197 317.595 182.141L316.923 181.618L318.577 180.992L318.732 181.076C324.432 183.879 327.575 185.673 328.324 186.617C331.226 190.251 330.606 195.437 330.58 195.652V195.801L330.485 195.913C327.816 199.053 315.597 200.006 315.081 200.043L314.624 200.099ZM315.262 194.699L315.442 199.099C317.638 198.903 327.377 197.894 329.745 195.362C329.814 194.512 330.055 190.195 327.67 187.205C327.23 186.663 325.371 185.337 319.059 182.235C320.221 183.421 321.943 185.654 321.289 187.981C320.445 190.877 316.278 193.979 315.279 194.699H315.262Z" fill="#054752"/>
<path d="M323.244 195.624C321.944 194.213 316.114 194.913 316.114 194.913C316.114 194.913 318.921 194.213 320.419 193.746C321.918 193.278 322.142 192.811 322.796 189.522C323.007 188.646 322.954 187.72 322.644 186.879C322.334 186.038 321.784 185.327 321.074 184.851L318.077 181.711L317.836 181.805C317.836 181.805 321.72 184.851 320.859 187.897C319.998 190.943 314.831 194.437 314.831 194.437L315.046 199.594C318.212 199.334 321.358 198.853 324.466 198.156C324.298 197.199 323.873 196.318 323.244 195.624Z" fill="#054752"/>
<path d="M314.624 200.099L314.375 194.194L314.59 194.054C314.642 194.054 319.653 190.597 320.454 187.747C321.22 185.056 317.63 182.197 317.595 182.141L316.923 181.618L318.198 181.132L321.349 184.44C322.122 184.977 322.719 185.764 323.057 186.689C323.396 187.614 323.458 188.631 323.235 189.597C322.572 192.923 322.297 193.624 320.557 194.166L320.213 194.269C321.599 194.353 322.942 194.614 323.545 195.259C324.236 196.029 324.701 197.005 324.88 198.062L324.957 198.511L324.552 198.613C321.427 199.318 318.264 199.801 315.081 200.062L314.624 200.099ZM315.262 194.698L315.442 199.099C318.293 198.851 321.128 198.42 323.933 197.81C323.753 197.106 323.413 196.463 322.942 195.941C322.081 195.007 318.336 195.11 316.166 195.371L316.019 194.437C316.019 194.437 318.835 193.727 320.325 193.269C321.565 192.886 321.745 192.708 322.4 189.401C322.573 188.68 322.549 187.92 322.328 187.214C322.108 186.508 321.702 185.888 321.16 185.43C321.47 186.246 321.515 187.152 321.289 187.999C320.445 190.877 316.278 193.979 315.279 194.698H315.262Z" fill="#054752"/>
<path d="M330.778 205.929C330.778 205.929 299.461 210.853 245.033 207.34C245.033 207.34 248.917 212.731 258.638 214.815C268.36 216.898 297.515 216.459 312.42 214.815C327.325 213.17 327.756 212.012 329.478 210.143C329.98 209.598 330.36 208.933 330.585 208.202C330.811 207.471 330.877 206.693 330.778 205.929Z" fill="#054752"/>
<path d="M281.499 216.711C271.976 216.711 263.193 216.3 258.578 215.3C248.813 213.18 244.878 207.826 244.715 207.63L244.129 206.807L245.085 206.873C298.833 210.339 330.425 205.518 330.744 205.471L331.148 205.406L331.226 205.836C331.346 206.68 331.281 207.543 331.036 208.355C330.791 209.167 330.372 209.905 329.814 210.507L329.59 210.75C327.954 212.554 326.877 213.749 312.489 215.328C304.869 216.141 292.676 216.711 281.499 216.711ZM246.118 207.872C247.634 209.442 251.595 212.824 258.75 214.413C268.032 216.431 296.844 216.123 312.403 214.413C326.481 212.862 327.472 211.769 328.97 210.106L329.202 209.853C329.607 209.415 329.924 208.891 330.133 208.314C330.342 207.737 330.438 207.119 330.416 206.499C326.421 207.022 295.862 211.003 246.118 207.872Z" fill="#054752"/>
<path d="M337.718 244.835C322.33 247.24 306.824 248.65 291.281 249.058C267.3 249.525 239.221 246.713 234.692 248.591C230.163 250.469 225.401 253.972 223.455 254.683C221.509 255.393 212.442 255.85 212.442 255.85C212.442 255.85 231.231 238.743 238.791 236.164C246.351 233.585 256.287 233.361 259.095 233.361C261.902 233.361 323.89 231.24 327.334 231.007C330.778 230.773 334.222 232.875 335.324 235.23C336.427 237.584 337.718 244.835 337.718 244.835Z" fill="#054752"/>
<path d="M211.185 256.383L212.167 255.449C212.933 254.748 231.11 238.248 238.662 235.669C246.575 232.978 257.071 232.866 259.095 232.866C262.246 232.866 324.096 230.745 327.317 230.521C331.122 230.269 334.636 232.642 335.721 234.996C336.805 237.351 338.08 244.433 338.14 244.732L338.226 245.208L337.778 245.283C322.369 247.677 306.843 249.087 291.281 249.506C280.406 249.712 268.893 249.263 258.69 248.862C246.704 248.385 237.241 248.011 234.838 249.002C232.286 250.145 229.808 251.478 227.425 252.991C226.2 253.802 224.919 254.508 223.593 255.103C221.612 255.822 212.838 256.28 212.459 256.299L211.185 256.383ZM327.876 231.418H327.377C324.148 231.642 262.246 233.763 259.095 233.763C257.088 233.763 246.712 233.894 238.92 236.566C232.522 238.743 217.712 251.711 213.725 255.253C216.308 255.094 221.888 254.701 223.326 254.178C224.598 253.596 225.83 252.916 227.011 252.141C229.429 250.602 231.944 249.25 234.537 248.096C237.12 247.03 246.592 247.413 258.716 247.89C268.885 248.292 280.414 248.74 291.272 248.535C306.641 248.149 321.976 246.801 337.202 244.498C336.892 242.845 335.841 237.397 334.954 235.482C334.067 233.567 331.036 231.418 327.876 231.418Z" fill="#054752"/>
<path d="M217.626 208.508C217.626 208.508 205.743 248.114 204.236 247.647C202.729 247.18 201.214 245.302 201.214 244.368C201.214 243.433 204.021 217.179 206.38 212.264C208.74 207.349 217.626 208.508 217.626 208.508Z" fill="#054752"/>
<path d="M204.314 248.133C204.248 248.143 204.181 248.143 204.116 248.133C202.394 247.61 200.783 245.554 200.783 244.396C200.783 243.237 203.59 217.085 206.01 212.068C208.43 207.051 217.307 208.022 217.677 208.078L218.194 208.144L218.039 208.686C218.039 208.779 215.025 218.702 211.908 228.437C206.088 246.526 204.942 248.133 204.314 248.133ZM215.396 208.891C212.692 208.891 208.283 209.386 206.785 212.507C204.52 217.179 201.619 243.34 201.619 244.396C201.619 245.012 202.807 246.666 204.202 247.199C205.734 245.405 212.769 223.196 217.049 208.966C216.661 208.891 216.084 208.863 215.396 208.863V208.891Z" fill="#054752"/>
<path d="M178.551 203.248L178.249 202.369C178.775 202.164 179.326 201.949 179.911 201.743C183.777 200.342 202.48 195.82 203.28 195.633L203.461 196.567C203.272 196.614 184.001 201.239 180.213 202.64C179.61 202.836 179.059 203.042 178.551 203.248Z" fill="#054752"/>
<path d="M173.755 205.415L173.376 204.574C173.376 204.574 174.099 204.182 175.305 203.64L175.64 204.5C174.461 205.032 173.763 205.406 173.755 205.415Z" fill="#054752"/>
<path d="M172.265 165.155C172.265 165.155 164.515 164.445 161.071 161.633C157.627 158.82 128.678 124.371 128.678 124.371C128.678 124.371 203.84 126.016 212.692 126.483C221.544 126.95 221.552 128.828 231.696 132.809C241.839 136.789 274.034 161.165 274.034 161.165L280.294 165.837C280.294 165.837 265.174 166.304 228.458 165.37C191.742 164.436 172.265 165.155 172.265 165.155Z" fill="#878787"/>
<path d="M268.11 166.435C259.714 166.435 246.721 166.323 228.415 165.856C192.13 164.921 172.446 165.613 172.282 165.622H172.23C171.912 165.622 164.292 164.875 160.778 162.006C157.265 159.138 129.505 126.1 128.325 124.689L127.645 123.886H128.652C129.401 123.886 203.918 125.53 212.683 125.997C218.711 126.315 220.734 127.296 224.428 129.09C226.236 129.959 228.475 131.043 231.807 132.351C241.899 136.312 272.932 159.773 274.241 160.764L281.594 166.267H280.277C280.199 166.323 276.376 166.435 268.11 166.435ZM192.87 164.436C201.903 164.436 213.82 164.548 228.432 164.921C258.759 165.697 274.49 165.51 278.916 165.417L273.75 161.558C273.431 161.306 241.503 137.162 231.558 133.248C228.2 131.93 225.935 130.837 224.118 129.959C220.398 128.165 218.538 127.259 212.683 126.95C204.486 126.52 138.632 125.082 129.677 124.867C134.06 130.062 158.247 158.745 161.338 161.306C164.558 163.922 171.852 164.678 172.325 164.725C172.799 164.772 179.825 164.436 192.87 164.436Z" fill="#054752"/>
<path d="M143.325 175.937C143.325 175.937 147.862 170.079 147.63 166.089C147.397 162.1 131.872 138.2 123.89 131.173C115.908 124.147 105.533 121.326 99.6946 121.326C93.8566 121.326 76.5837 124.839 65.7859 129.295C54.9882 133.752 40.9529 140.788 40.9529 140.788L23.8866 152.934C23.8866 152.934 44.8363 159.736 83.498 166.061C122.16 172.387 143.325 175.937 143.325 175.937Z" fill="#878787"/>
<path d="M143.505 176.432H143.264C143.049 176.432 121.652 172.845 83.4377 166.594C45.2237 160.343 23.9727 153.513 23.766 153.448L22.905 153.168L40.7376 140.423C40.9356 140.321 54.971 133.304 65.6567 128.894C76.73 124.334 93.9599 120.896 99.7204 120.896C106.041 120.859 116.373 123.97 124.123 130.809C132.071 137.798 147.811 161.726 148.043 166.061C148.267 170.182 143.815 175.993 143.626 176.236L143.505 176.432ZM24.9026 152.794C29.3027 154.139 49.7701 160.1 83.5668 165.632C119.594 171.527 140.673 174.975 143.152 175.433C143.927 174.377 147.397 169.472 147.217 166.089C147.019 162.352 131.769 138.676 123.615 131.519C116.012 124.829 105.886 121.784 99.6946 121.784C93.9943 121.784 76.9281 125.194 65.9409 129.725C55.2809 134.117 41.2714 141.124 41.1337 141.19L24.9026 152.794Z" fill="#054752"/>
<path d="M123.89 131.173C115.9 124.138 105.533 121.326 99.6946 121.326C93.8566 121.326 76.5837 124.839 65.7859 129.295C54.9882 133.752 40.9529 140.788 40.9529 140.788L23.8866 152.934C23.8866 152.934 29.5352 154.803 40.3501 157.409L49.8218 139.106L57.8125 134.658L49.3052 159.493L51.0962 159.895L59.3279 134.668C66.6728 130.445 87.8377 124.82 87.8377 124.82C81.5692 134.023 76.7214 157.895 75.4298 164.697C78.013 165.155 80.7254 165.631 83.5152 166.071L83.9544 166.145C84.2729 145.366 93.426 124.101 93.426 124.101C93.426 124.101 102.037 123.166 113.084 127.38C119.659 129.892 125.534 134.186 130.15 139.853L124.519 172.835L126.801 173.209L131.666 142.656L138.356 151.794L135.007 174.554L143.325 175.937C143.325 175.937 147.862 170.079 147.63 166.089C147.397 162.1 131.872 138.2 123.89 131.173Z" fill="#054752"/>
<path d="M143.505 176.432L134.516 174.947L137.9 151.925L131.916 143.759L127.145 173.732L124.002 173.218L129.685 139.975C125.117 134.483 119.362 130.309 112.938 127.829C106.782 125.408 100.253 124.297 93.7102 124.558C92.7027 126.988 84.6518 146.898 84.359 166.145V166.678L83.4377 166.519C80.6392 166.071 77.9527 165.585 75.3437 165.146L74.9045 165.071L74.9907 164.594C76.2822 157.783 80.8373 135.434 86.813 125.567C82.3958 126.782 66.0184 131.407 59.6551 134.985L51.3545 160.427L48.711 159.848L57.003 135.621L50.1145 139.461L40.5998 157.97L40.2812 157.895C29.5782 155.279 23.8435 153.429 23.7918 153.41L22.9308 153.13L40.7634 140.386C40.9614 140.283 54.9968 133.266 65.6826 128.856C76.7558 124.297 93.9857 120.858 99.7462 120.858C106.041 120.858 116.373 123.97 124.123 130.809C132.071 137.798 147.811 161.726 148.043 166.061C148.267 170.182 143.815 175.993 143.626 176.236L143.505 176.432ZM135.506 174.162L143.152 175.433C143.927 174.377 147.397 169.472 147.217 166.089C147.019 162.352 131.769 138.676 123.615 131.519C116.012 124.829 105.886 121.783 99.6945 121.783C93.9943 121.783 76.928 125.194 65.9409 129.725C55.2809 134.117 41.2714 141.124 41.1337 141.189L24.9026 152.794C26.8744 153.401 32.0494 154.924 40.1348 156.905L49.4946 138.788L58.5874 133.724L49.8648 159.175L50.7948 159.381L58.9577 134.359L59.104 134.275C66.4145 130.071 86.8475 124.614 87.7172 124.39L88.871 124.082L88.1649 125.119C82.1375 134.014 77.3758 156.783 75.9292 164.361C78.3746 164.791 80.9033 165.22 83.5152 165.65C83.9801 145.179 92.9869 124.185 93.0471 123.97L93.1505 123.727H93.3916C100.13 123.397 106.861 124.522 113.196 127.034C119.818 129.587 125.741 133.909 130.417 139.601L130.538 139.769L124.95 172.471L126.379 172.704L131.33 141.582L138.744 151.701L135.506 174.162Z" fill="#054752"/>
<path d="M140.733 159.53C140.733 159.53 136.849 155.793 134.903 157.419C133.605 158.681 132.637 160.292 132.096 162.09L128.204 161.614C128.204 161.614 124.76 151.775 122.177 151.542C119.594 151.308 107.272 150.608 104.465 151.775C101.658 152.943 101.227 155.513 101.021 157.167C100.814 158.82 100.375 163.959 102.527 165.136C104.68 166.314 124.993 168.874 124.993 168.874L131.881 171.677L130.796 174.255L143.325 175.9C143.325 175.9 147.217 168.425 147.63 166.052C148.043 163.679 140.733 159.53 140.733 159.53Z" fill="#054752"/>
<path d="M143.557 176.432L130.15 174.676L131.278 171.976L124.846 169.36C123.468 169.182 104.465 166.743 102.295 165.566C99.8237 164.23 100.332 158.764 100.573 157.157C100.762 155.709 101.158 152.71 104.301 151.392C107.315 150.14 120.343 150.963 122.203 151.131C124.786 151.364 127.869 159.428 128.523 161.24L131.812 161.642C132.376 159.884 133.353 158.316 134.645 157.092C136.755 155.307 140.535 158.746 140.991 159.175C142.36 159.97 148.543 163.688 148.078 166.22C147.639 168.612 143.867 175.891 143.712 176.199L143.557 176.432ZM131.433 173.91L143.066 175.433C143.764 174.069 146.829 167.958 147.199 165.996C147.449 164.623 143.437 161.623 140.509 159.942L140.423 159.876C139.415 158.942 136.505 156.643 135.145 157.783C133.917 158.994 133.001 160.53 132.484 162.24L132.372 162.614L127.877 162.072L127.782 161.801C126.482 158.064 123.787 152.177 122.099 152.028C119.137 151.757 107.22 151.093 104.577 152.233C101.933 153.373 101.572 155.887 101.391 157.251C101.012 160.175 101.115 163.894 102.674 164.725C104.396 165.66 119.37 167.715 124.993 168.463H125.096L132.441 171.453L131.433 173.91Z" fill="#054752"/>

<path d="M126.913 162.81L128.204 161.633C128.204 161.633 124.76 151.794 122.177 151.561C119.594 151.327 107.272 150.626 104.465 151.794C101.658 152.962 101.227 155.531 101.021 157.185C100.827 158.639 100.79 160.113 100.909 161.577C106.902 162.128 125.845 163.791 126.913 162.81Z" fill="white"/>

<path d="M123.58 163.567C119.447 163.567 111.844 163.053 100.848 162.044H100.495L100.452 161.661C100.336 160.16 100.373 158.649 100.564 157.157C100.754 155.709 101.15 152.71 104.293 151.392C107.306 150.14 120.334 150.963 122.194 151.131C124.975 151.383 128.222 160.474 128.609 161.511L128.721 161.82L127.188 163.212C126.896 163.436 125.69 163.567 123.58 163.567ZM101.279 161.147C115.762 162.474 125.699 163.016 126.646 162.436L127.696 161.502C126.362 157.765 123.77 152.159 122.125 152.037C119.163 151.766 107.246 151.103 104.603 152.243C101.959 153.383 101.598 155.896 101.417 157.26C101.254 158.548 101.208 159.849 101.279 161.147Z" fill="#054752"/>
<path d="M134.258 181.085L133.397 180.833C134.103 178.114 134.671 176.274 134.68 176.255L135.498 176.554C135.498 176.554 134.964 178.394 134.258 181.085Z" fill="#054752"/>
<path d="M127.343 247.647C125.733 247.647 51.9572 238.36 51.2598 238.304C49.928 238.101 48.6768 237.492 47.6519 236.547L46.7909 235.884C44.6124 234.314 31.7136 195.876 30.4307 190.858C30.1592 189.703 29.9777 188.525 29.8882 187.336L30.7492 187.243C30.8379 188.377 31.0107 189.502 31.2659 190.606C32.9277 197.044 45.5079 233.725 47.2903 235.108L48.1513 235.772C49.0689 236.628 50.1915 237.186 51.3889 237.379C52.0778 237.472 125.845 246.722 127.36 246.722C128.583 246.722 128.91 246.498 129.315 244.283C129.539 243.069 129.711 231.95 129.883 221.196C130.03 211.638 130.185 201.743 130.391 197.716C130.7 193.464 131.369 189.251 132.389 185.131L133.25 185.355C132.242 189.417 131.579 193.57 131.27 197.763C131.072 201.781 130.917 211.657 130.77 221.215C130.589 232.511 130.426 243.172 130.185 244.47C129.711 246.815 129.22 247.647 127.343 247.647Z" fill="#054752"/>
<path d="M29.5782 182.767C29.3853 176.386 29.5089 169.999 29.9485 163.632C30.1637 162.698 34.3054 160.269 37.698 158.409L38.0855 159.241C34.7101 161.109 31.042 163.315 30.7406 163.912C30.3366 170.181 30.2246 176.468 30.4048 182.749L29.5782 182.767Z" fill="#054752"/>
<path d="M75.9034 238.509H75.0423V237.332C75.0423 237.098 74.9046 234.781 74.7065 231.577C74.4826 227.839 74.1641 222.775 73.8455 217.3L74.7065 217.244C75.0165 222.719 75.3265 227.821 75.5676 231.511C75.8087 235.202 75.9034 237.117 75.9034 237.332V238.509Z" fill="#054752"/>
<path d="M73.458 209.545C72.795 197.128 72.5453 189.354 72.7003 186.448C73.1308 178.516 76.1445 167.93 76.1445 167.827L77.0056 168.107C77.0056 168.21 73.9919 178.684 73.5613 186.504C73.4064 189.373 73.6561 197.109 74.3191 209.489L73.458 209.545Z" fill="#054752"/>
<path d="M40.9098 173.33C40.4535 175.872 39.136 177.731 37.965 177.488C36.7939 177.245 36.2429 174.984 36.6734 172.443C37.1039 169.902 38.3955 168.042 39.6096 168.285C40.8237 168.528 41.3662 170.789 40.9098 173.33Z" fill="#054752"/>
<path d="M38.1802 177.974C38.0828 177.983 37.9849 177.983 37.8875 177.974C37.4745 177.839 37.1054 177.579 36.8233 177.225C36.5413 176.871 36.3578 176.437 36.2945 175.975C36.0251 174.795 36.0075 173.565 36.2428 172.377C36.7509 169.574 38.2663 167.547 39.6871 167.855C41.1078 168.164 41.8311 170.611 41.3231 173.461C41.1305 174.657 40.692 175.791 40.0401 176.778C39.8339 177.117 39.5593 177.401 39.2371 177.608C38.9149 177.816 38.5535 177.941 38.1802 177.974ZM39.4029 168.733C38.6107 168.733 37.5086 170.21 37.0953 172.527C36.8779 173.569 36.8779 174.652 37.0953 175.694C37.2933 176.46 37.6291 176.946 38.0252 177.03C38.4213 177.114 38.8863 176.797 39.3427 176.171C39.9142 175.3 40.2968 174.3 40.462 173.246C40.9012 170.798 40.307 168.911 39.5063 168.743L39.4029 168.733Z" fill="#054752"/>
<path d="M40.7204 171.546L35.554 170.967C35.3316 170.935 35.1057 170.954 34.8903 171.022C34.6748 171.089 34.4745 171.204 34.3017 171.359C34.1289 171.514 33.9873 171.706 33.8858 171.923C33.7842 172.14 33.7249 172.378 33.7114 172.62C33.6842 173.071 33.8172 173.516 34.083 173.864C34.3489 174.211 34.7274 174.435 35.1407 174.489L40.3071 175.199C40.548 175.227 40.7915 175.199 41.0218 175.117C41.2521 175.036 41.4639 174.903 41.6435 174.726C41.8231 174.55 41.9664 174.335 42.064 174.094C42.1616 173.853 42.2114 173.593 42.2101 173.331C42.1955 172.89 42.038 172.47 41.7654 172.143C41.4929 171.817 41.1227 171.605 40.7204 171.546Z" fill="#2481ce"/>
<path d="M40.5482 175.685C40.4594 175.694 40.37 175.694 40.2812 175.685L35.1149 174.984C34.5778 174.918 34.0857 174.628 33.7432 174.174C33.4006 173.72 33.2348 173.139 33.2808 172.555C33.2971 172.254 33.3706 171.96 33.4965 171.692C33.6225 171.423 33.7982 171.186 34.0127 170.995C34.2236 170.799 34.4689 170.651 34.7339 170.561C34.9988 170.471 35.2778 170.441 35.554 170.472L40.7204 171.051C41.1324 171.095 41.5235 171.269 41.8457 171.551C42.1679 171.833 42.4072 172.211 42.5343 172.639C42.6614 173.066 42.6707 173.525 42.5611 173.958C42.4515 174.391 42.2277 174.781 41.9173 175.078C41.5413 175.449 41.0563 175.664 40.5482 175.685ZM35.3818 171.425C35.0977 171.423 34.8225 171.532 34.6068 171.733C34.481 171.849 34.3785 171.991 34.3059 172.152C34.2333 172.313 34.1921 172.488 34.1849 172.667C34.1647 173 34.262 173.33 34.457 173.588C34.6521 173.847 34.9303 174.015 35.2354 174.059L40.4018 174.76C40.5696 174.786 40.7405 174.776 40.9045 174.729C41.0684 174.682 41.2221 174.6 41.3563 174.488C41.4905 174.376 41.6025 174.235 41.6857 174.075C41.7689 173.915 41.8216 173.738 41.8406 173.555C41.8596 173.372 41.8446 173.187 41.7965 173.011C41.7484 172.834 41.6681 172.67 41.5604 172.528C41.4527 172.386 41.3198 172.269 41.1696 172.184C41.0194 172.098 40.8549 172.047 40.6859 172.032L35.5196 171.453L35.3818 171.425Z" fill="#054752"/>
<path d="M85.8745 179.544C85.3493 182.618 83.8166 184.87 82.4303 184.571C81.0439 184.272 80.3981 181.534 80.9234 178.46C81.4486 175.386 82.9899 173.134 84.3676 173.433C85.7453 173.732 86.3998 176.47 85.8745 179.544Z" fill="#054752"/>
<path d="M82.6972 185.066C82.5854 185.075 82.4731 185.075 82.3614 185.066C80.7512 184.711 79.9332 181.786 80.5187 178.413C80.9062 176.134 81.8447 174.218 82.9641 173.405C83.1747 173.233 83.4155 173.11 83.6716 173.042C83.9278 172.975 84.1939 172.965 84.4537 173.013C86.0639 173.368 86.882 176.292 86.2964 179.665C85.909 181.945 84.9704 183.86 83.8596 184.673C83.5159 184.925 83.1117 185.061 82.6972 185.066ZM84.1179 173.854C83.8755 173.869 83.6422 173.96 83.4463 174.115C82.525 174.788 81.7242 176.526 81.3625 178.525C80.8459 181.543 81.5692 183.879 82.5336 184.131C82.6848 184.156 82.839 184.147 82.9869 184.105C83.1349 184.063 83.2735 183.99 83.3946 183.888C84.3074 183.216 85.1168 181.487 85.4698 179.478C85.9864 176.461 85.2718 174.125 84.2988 173.872L84.1179 173.854Z" fill="#054752"/>
<path d="M85.6507 177.376L79.6232 176.675C79.3632 176.651 79.1013 176.684 78.8533 176.773C78.6054 176.861 78.3764 177.003 78.1802 177.189C77.984 177.376 77.8245 177.604 77.7115 177.859C77.5984 178.115 77.534 178.392 77.5222 178.675C77.4819 179.214 77.6321 179.75 77.9423 180.173C78.2525 180.596 78.6996 180.876 79.1927 180.955L85.2201 181.805C85.5029 181.838 85.789 181.806 86.0592 181.709C86.3294 181.613 86.5776 181.455 86.7871 181.247C86.9966 181.038 87.1626 180.783 87.274 180.499C87.3854 180.215 87.4396 179.908 87.4331 179.6C87.443 179.055 87.2662 178.526 86.9368 178.115C86.6074 177.704 86.149 177.441 85.6507 177.376Z" fill="#2481ce"/>
<path d="M85.4526 182.291H85.1513L79.1238 181.44C78.5196 181.341 77.9728 180.996 77.594 180.476C77.2151 179.955 77.0325 179.298 77.0831 178.637C77.1036 178.279 77.1904 177.929 77.3384 177.608C77.4863 177.287 77.6923 177.002 77.9442 176.769C78.1809 176.552 78.4555 176.39 78.7515 176.292C79.0475 176.195 79.3586 176.163 79.6663 176.199L85.6937 176.9C86.2956 176.976 86.8496 177.293 87.2476 177.789C87.6456 178.285 87.8591 178.924 87.8464 179.581C87.8463 179.969 87.7694 180.353 87.6208 180.706C87.4722 181.059 87.2555 181.373 86.9853 181.627C86.5651 182.042 86.0206 182.278 85.4526 182.291ZM79.4252 177.133C79.0869 177.135 78.7602 177.267 78.5039 177.507C78.2777 177.717 78.1111 177.992 78.0232 178.301C77.9353 178.609 77.9298 178.939 78.0073 179.251C78.0848 179.563 78.2421 179.844 78.461 180.063C78.68 180.282 78.9516 180.429 79.2444 180.487L85.2718 181.347C85.4835 181.376 85.6985 181.355 85.9021 181.286C86.1057 181.217 86.2931 181.1 86.4515 180.945C86.6267 180.777 86.7665 180.57 86.8616 180.337C86.9567 180.105 87.0047 179.854 87.0026 179.6C87.0142 179.172 86.8786 178.756 86.6223 178.431C86.3659 178.106 86.0073 177.897 85.6162 177.843L79.5888 177.142L79.4252 177.133Z" fill="#054752"/>
<path d="M15.6807 161.166C15.8098 159.596 12.8047 157.849 10.4454 156.727C8.44775 157.522 7.00115 158.493 6.60507 159.998C5.93868 163.393 5.43571 166.823 5.09821 170.275C5.09821 170.275 15.4654 163.744 15.6807 161.166Z" fill="#054752"/>
<path d="M4.58154 171.181L4.66765 170.247C4.99435 166.767 5.4916 163.308 6.15729 159.885C6.59643 157.97 8.58548 156.961 10.2646 156.288L10.4282 156.223L10.5832 156.298C14.4063 158.11 16.1973 159.717 16.0767 161.212C15.8529 163.894 7.04419 169.621 5.27901 170.714L4.58154 171.181ZM10.4626 157.232C8.40466 158.082 7.31973 158.998 7.06141 160.11C6.44475 163.196 5.97627 166.314 5.65787 169.453C9.59293 166.893 15.1296 162.754 15.2846 161.156C15.3276 160.175 13.5366 158.727 10.4626 157.232Z" fill="#054752"/>

<!-- front glass -->
<path d="M218.177 127.165L178.215 165.015C185.405 164.893 199.01 164.781 218.642 165.164L237.654 135.901C235.714 134.718 233.7 133.684 231.627 132.808C224.204 129.884 222.224 128.09 218.177 127.165Z" fill="white"/>

<path d="M218.84 165.641H218.616C199.543 165.267 186.119 165.351 178.206 165.492H177.027L218.039 126.651L218.254 126.698C220.384 127.241 222.45 128.046 224.411 129.099C226.219 129.968 228.467 131.052 231.79 132.36C233.864 133.246 235.878 134.289 237.818 135.481L238.248 135.733L218.84 165.641ZM192.801 164.436C199.75 164.436 208.3 164.501 218.401 164.697L237.008 136.06C235.232 134.991 233.391 134.055 231.497 133.257C228.139 131.94 225.883 130.847 224.066 129.968C222.217 128.987 220.278 128.219 218.28 127.679L179.369 164.538C182.893 164.476 187.377 164.442 192.819 164.436H192.801Z" fill="#054752"/>
<path d="M255.771 165.902L258.354 149.72C255.401 147.618 252.266 145.422 249.184 143.329L240.513 165.66C246.282 165.781 251.345 165.856 255.771 165.902Z" fill="white"/>
<path d="M256.124 166.37H255.762C251.018 166.314 245.894 166.239 240.53 166.127H239.893L240.134 165.491C242.967 158.204 246.032 150.299 248.813 143.152L248.977 142.656L249.408 142.946C252.249 144.88 255.332 147.038 258.578 149.346L258.819 149.514L256.124 166.37ZM241.176 165.211C246.17 165.305 250.957 165.379 255.409 165.426L257.906 149.944C254.918 147.814 252.06 145.824 249.416 144.011C246.764 150.822 243.871 158.278 241.176 165.211Z" fill="#054752"/>
</svg>
